<?xml version="1.0" encoding="UTF-8"?>
<!DOCTYPE svg PUBLIC "-//W3C//DTD SVG 1.1//EN" "http://www.w3.org/Graphics/SVG/1.1/DTD/svg11.dtd">
<!-- Creator: CorelDRAW X8 -->
<svg xmlns="http://www.w3.org/2000/svg" xml:space="preserve" width="148mm" height="80mm" version="1.1" style="shape-rendering:geometricPrecision; text-rendering:geometricPrecision; image-rendering:optimizeQuality; fill-rule:evenodd; clip-rule:evenodd"
viewBox="0 0 14800 8000"
 xmlns:xlink="http://www.w3.org/1999/xlink">
 <defs>
  <style type="text/css">
   <![CDATA[
    .fil1 {fill:#1F1B20}
    .fil0 {fill:#1F1B20;fill-rule:nonzero}
   ]]>
  </style>
 </defs>
 <g id="Слой_x0020_1">
  <metadata id="CorelCorpID_0Corel-Layer"/>
  <g id="_988197120">
   <g>
    <path class="fil0" d="M2802 2298c-18,-14 -32,-21 -54,-21l-483 0c-47,0 -69,21 -72,68l-50 855 -495 16 58 -853c11,-131 -434,-67 -534,-65 -166,0 -213,2154 -230,2408 0,47 29,79 76,79l526 -11c50,0 72,-25 72,-72l14 -852c192,-70 287,-83 484,-112l-39 753 -7 143 -1 43c0,43 33,72 72,72l530 0c51,0 72,-22 72,-72 0,-358 0,-724 11,-1089 4,-157 87,-1243 50,-1290zm2157 2401c-111,-620 -203,-1289 -355,-1896 -21,-79 -46,-168 -75,-247 -54,-122 -136,-236 -276,-247 -75,-7 -147,-7 -208,3 -82,11 -162,24 -240,43 -44,11 -59,56 -68,78 -116,268 -215,506 -322,779 -187,475 -333,965 -466,1458 -7,50 21,93 68,93l530 11c36,0 61,-18 72,-54l79 -329 541 -108 36 437c3,43 28,65 71,65l541 0c47,0 79,-40 72,-86zm-1075 -939l176 -577c45,191 69,376 93,570l-269 7z"/>
    <path class="fil0" d="M8205 4315c0,-39 -24,-60 -60,-64l0 0 0 0 0 0 -26 0 0 0 -28 0 -118 0c0,-219 3,-441 10,-663 11,-412 40,-824 68,-1233 23,-135 -438,-78 -519,-78 -47,0 -72,21 -72,68l-104 1906 -523 0 104 -1888c4,-40 -29,-76 -75,-76l-459 11c-46,0 -68,25 -72,68l-157 2340c0,47 28,79 75,79l1419 -25c-7,154 -25,419 -25,498 0,46 21,71 72,71l419 -7c46,0 75,-32 75,-79 4,-240 -4,-566 -4,-928zm3769 362c-5,52 -4,91 -71,97l-487 11c-39,0 -79,-36 -72,-75 15,-597 35,-1192 51,-1788 -151,7 -301,17 -516,60l-72 1720c0,47 -22,72 -72,72l-527 11c-46,0 -75,-32 -75,-79l151 -2293c3,-43 25,-68 71,-68l1333 -40c233,-7 355,151 344,391l-58 1981zm-2283 -1454c38,1 73,32 73,71l0 373c0,39 -21,64 -61,71l-784 104 -18 298 956 -29c43,0 76,32 76,72l0 451c0,43 -22,68 -69,72l-1508 79c-43,0 -75,-29 -75,-75 8,-768 45,-1526 122,-2290 7,-43 28,-65 71,-65l1473 -68c46,0 79,33 79,76l-11 426c-4,43 -25,68 -68,72l-986 104 -25 297 755 -39zm4215 -853c-61,-61 -147,-83 -233,-83l-139 0c-58,0 -115,36 -144,93 -211,391 -394,764 -569,1154l68 -1157c0,-40 -33,-75 -76,-75l-430 10c-46,0 -68,25 -71,68l-158 2344c0,46 29,79 75,79l531 -11c46,0 50,-11 68,-57 211,-498 337,-742 537,-1183 -28,371 -82,790 -82,1158 0,43 29,71 72,71l530 0c50,0 71,-21 71,-71 0,-362 4,-742 22,-1108 21,-412 29,-548 39,-960 4,-111 -39,-201 -111,-272z"/>
   </g>
   <g>
    <path class="fil1" d="M1368 1477c230,59 725,33 897,39l1 -257 -705 -3c-20,-5 -12,-40 22,-57 11,-5 8,-11 0,-21 -91,-102 -195,-95 -287,8 -70,79 -75,253 72,291z"/>
    <path class="fil1" d="M13660 1477c-230,59 -725,33 -896,39l-2 -257 705 -3c21,-5 12,-40 -22,-57 -11,-5 -8,-11 1,-21 91,-102 194,-95 286,8 70,79 75,253 -72,291z"/>
    <path class="fil1" d="M1018 1011c321,9 470,-52 647,197l296 5c-28,-194 -170,-324 -309,-390 -170,-81 -427,-68 -635,-67 0,55 0,224 1,255z"/>
    <path class="fil1" d="M14011 1011c-322,9 -471,-52 -648,197l-296 5c28,-194 170,-324 309,-390 170,-81 428,-68 635,-67 0,55 0,224 0,255z"/>
    <path class="fil1" d="M1865 1572l-848 -2 1 266c328,17 632,-16 847,-264z"/>
    <path class="fil1" d="M13163 1572l848 -2 0 266c-329,17 -632,-16 -848,-264z"/>
    <polygon class="fil1" points="2425,1213 2570,1212 2596,1117 1990,1118 2021,1212 "/>
    <polygon class="fil1" points="12603,1213 12458,1212 12432,1117 13038,1118 13007,1212 "/>
    <path class="fil1" d="M3983 1477c230,59 726,33 897,39l1 -257 -705 -3c-20,-5 -11,-40 22,-57 11,-5 9,-11 0,-21 -91,-102 -195,-95 -287,8 -70,79 -75,253 72,291z"/>
    <path class="fil1" d="M11045 1477c-230,59 -725,33 -897,39l-1 -257 705 -3c20,-5 12,-40 -22,-57 -11,-5 -8,-11 1,-21 90,-102 194,-95 286,8 70,79 75,253 -72,291z"/>
    <path class="fil1" d="M6594 1477c230,59 725,34 897,39l1 -257 -705 -3c-20,-5 -12,-40 22,-56 11,-6 8,-12 0,-22 -91,-102 -195,-95 -287,8 -70,79 -75,253 72,291z"/>
    <path class="fil1" d="M9210 1477c231,59 726,33 897,39l2 -257 -706 -3c-20,-5 -11,-40 23,-57 11,-5 8,-11 -1,-21 -91,-103 -195,-95 -286,8 -70,79 -75,253 71,291z"/>
    <path class="fil1" d="M3210 1477c-230,59 -725,33 -896,39l-2 -257 705 -4c21,-4 12,-39 -22,-56 -11,-5 -8,-11 1,-21 91,-103 195,-95 286,8 70,79 75,253 -72,291z"/>
    <path class="fil1" d="M11818 1477c230,59 725,33 897,39l1 -257 -705 -4c-20,-4 -12,-39 22,-56 11,-5 8,-11 0,-21 -91,-103 -195,-95 -287,8 -70,79 -75,253 72,291z"/>
    <path class="fil1" d="M5821 1477c-230,59 -725,33 -896,39l-2 -257 705 -3c21,-5 12,-40 -22,-57 -11,-5 -8,-11 1,-21 91,-103 194,-95 286,8 70,79 75,253 -72,291z"/>
    <path class="fil1" d="M8438 1477c-230,59 -726,33 -897,39l-2 -257 706 -4c20,-4 11,-39 -22,-56 -12,-5 -9,-11 0,-21 91,-103 195,-95 287,8 70,79 75,253 -72,291z"/>
    <path class="fil1" d="M3628 1011c321,9 470,-52 648,197l295 5c-27,-194 -170,-324 -309,-390 -170,-81 -427,-68 -634,-67 -1,55 -1,224 0,255z"/>
    <path class="fil1" d="M11400 1011c-321,9 -470,-52 -647,197l-296 5c28,-194 170,-324 309,-390 170,-81 427,-68 635,-67 0,55 0,224 -1,255z"/>
    <path class="fil1" d="M6239 1011c321,9 470,-52 648,198l295 4c-27,-194 -170,-324 -309,-390 -170,-81 -427,-68 -635,-67 0,55 0,224 1,255z"/>
    <path class="fil1" d="M8855 1011c321,9 471,-52 648,197l295 5c-27,-194 -169,-324 -308,-390 -171,-82 -428,-68 -635,-67 -1,55 0,224 0,255z"/>
    <path class="fil1" d="M3564 1011c-321,9 -471,-52 -648,197l-295 5c27,-194 169,-324 308,-390 171,-81 428,-68 635,-67 1,55 0,224 0,255z"/>
    <path class="fil1" d="M11464 1011c321,9 471,-52 648,197l296 5c-28,-194 -170,-324 -309,-390 -171,-81 -428,-68 -635,-67 0,55 0,224 0,255z"/>
    <path class="fil1" d="M6175 1011c-321,9 -471,-52 -648,198l-295 4c27,-194 169,-324 308,-390 171,-81 428,-68 635,-67 1,55 0,224 0,255z"/>
    <path class="fil1" d="M8791 1011c-321,9 -470,-52 -647,197l-296 5c28,-194 170,-324 309,-390 170,-82 427,-68 635,-67 0,55 0,224 -1,255z"/>
    <path class="fil1" d="M4481 1572l-1754 -2c247,284 649,268 963,268 306,10 587,-32 791,-266z"/>
    <path class="fil1" d="M10548 1572l1754 -1c-248,283 -650,267 -964,267 -306,10 -587,-32 -790,-266z"/>
    <path class="fil1" d="M7091 1572l-1753 -1c247,284 649,267 963,267 306,10 587,-32 790,-266z"/>
    <path class="fil1" d="M9708 1572l-1754 -2c247,284 649,268 963,268 307,10 588,-33 791,-266z"/>
    <polygon class="fil1" points="5037,1213 5181,1213 5208,1118 4602,1119 4633,1213 "/>
    <polygon class="fil1" points="7648,1213 7792,1213 7819,1118 7213,1119 7244,1213 "/>
    <polygon class="fil1" points="10264,1213 10409,1213 10435,1118 9829,1118 9860,1213 "/>
   </g>
   <g>
    <path class="fil1" d="M1365 6030c230,59 726,34 897,39l1 -257 -705 -3c-20,-5 -11,-40 22,-56 12,-6 9,-12 0,-22 -91,-102 -195,-95 -287,8 -70,79 -75,253 72,291z"/>
    <path class="fil1" d="M13657 6030c-230,59 -725,34 -896,39l-2 -257 706 -3c20,-5 11,-40 -23,-56 -11,-6 -8,-12 1,-22 91,-102 195,-94 286,8 70,79 75,253 -72,291z"/>
    <path class="fil1" d="M1015 5564c321,9 471,-52 648,198l295 4c-27,-194 -169,-324 -308,-390 -171,-81 -428,-68 -635,-67 -1,55 -1,224 0,255z"/>
    <path class="fil1" d="M14008 5564c-321,9 -471,-52 -648,198l-295 4c27,-194 169,-324 308,-390 171,-81 428,-68 635,-67 1,55 0,224 0,255z"/>
    <path class="fil1" d="M1863 6126l-849 -3 1 266c328,17 632,-16 848,-263z"/>
    <path class="fil1" d="M13160 6126l848 -3 0 266c-329,17 -632,-16 -848,-263z"/>
    <polygon class="fil1" points="2422,5766 2567,5765 2593,5670 1988,5671 2018,5766 "/>
    <polygon class="fil1" points="12600,5766 12455,5765 12429,5670 13035,5671 13004,5766 "/>
    <path class="fil1" d="M3980 6030c230,59 726,34 897,39l2 -257 -706 -3c-20,-5 -11,-40 22,-56 12,-6 9,-12 0,-22 -91,-102 -195,-95 -287,8 -70,79 -75,253 72,291z"/>
    <path class="fil1" d="M11042 6030c-230,59 -725,34 -896,39l-2 -257 705 -3c21,-5 12,-40 -22,-56 -11,-6 -8,-12 1,-22 91,-102 195,-94 286,8 70,79 75,253 -72,291z"/>
    <path class="fil1" d="M6591 6030c230,59 726,34 897,39l1 -257 -705 -3c-20,-4 -11,-40 22,-56 12,-6 9,-12 0,-22 -91,-102 -195,-94 -287,9 -70,78 -75,252 72,290z"/>
    <path class="fil1" d="M9208 6030c230,59 725,34 896,39l2 -257 -705 -3c-21,-5 -12,-40 22,-56 11,-6 8,-12 -1,-22 -91,-102 -195,-95 -286,8 -70,79 -75,253 72,291z"/>
    <path class="fil1" d="M3208 6030c-231,59 -726,33 -897,39l-2 -257 706 -3c20,-5 11,-40 -23,-57 -11,-5 -8,-11 1,-21 91,-102 195,-95 286,8 70,79 75,253 -71,291z"/>
    <path class="fil1" d="M11815 6030c230,59 726,33 897,39l1 -257 -705 -3c-20,-5 -11,-40 22,-57 11,-5 9,-11 0,-21 -91,-102 -195,-95 -287,8 -70,79 -75,253 72,291z"/>
    <path class="fil1" d="M5819 6030c-231,59 -726,34 -897,39l-2 -257 706 -3c20,-5 11,-40 -23,-56 -11,-6 -8,-12 1,-22 91,-102 195,-95 286,8 70,79 75,253 -71,291z"/>
    <path class="fil1" d="M8435 6030c-230,59 -726,33 -897,39l-1 -257 705 -3c20,-5 11,-40 -22,-57 -11,-5 -9,-11 0,-21 91,-103 195,-95 287,8 70,79 75,253 -72,291z"/>
    <path class="fil1" d="M3625 5564c321,9 471,-52 648,198l295 4c-27,-194 -169,-324 -308,-390 -171,-81 -428,-68 -635,-67 -1,55 0,224 0,255z"/>
    <path class="fil1" d="M11398 5564c-321,9 -471,-52 -648,198l-296 4c28,-194 170,-324 309,-390 170,-81 428,-68 635,-67 0,55 0,224 0,255z"/>
    <path class="fil1" d="M6236 5564c321,9 471,-52 648,198l295 4c-27,-193 -169,-324 -308,-390 -171,-81 -428,-68 -635,-67 -1,55 0,224 0,255z"/>
    <path class="fil1" d="M8852 5564c322,9 471,-52 648,197l296 5c-28,-194 -170,-324 -309,-390 -170,-81 -428,-68 -635,-67 0,55 0,224 0,255z"/>
    <path class="fil1" d="M3561 5564c-321,9 -470,-52 -648,198l-295 4c27,-194 170,-324 309,-390 170,-81 427,-68 634,-67 1,55 1,224 0,255z"/>
    <path class="fil1" d="M11461 5564c322,9 471,-52 648,198l296 4c-28,-194 -170,-324 -309,-390 -170,-81 -428,-68 -635,-67 0,55 0,224 0,255z"/>
    <path class="fil1" d="M6172 5564c-321,9 -471,-52 -648,198l-295 4c27,-193 169,-324 308,-390 171,-81 428,-68 635,-67 1,55 1,224 0,255z"/>
    <path class="fil1" d="M8789 5564c-322,9 -471,-52 -648,197l-296 5c28,-194 170,-324 309,-390 170,-81 428,-68 635,-67 0,55 0,224 0,255z"/>
    <path class="fil1" d="M4478 6126l-1754 -2c247,284 649,267 963,267 306,10 588,-32 791,-265z"/>
    <path class="fil1" d="M10545 6126l1754 -2c-248,284 -650,267 -964,267 -306,11 -587,-32 -790,-265z"/>
    <path class="fil1" d="M7089 6126l-1754 -2c247,284 649,268 963,268 306,10 588,-33 791,-266z"/>
    <path class="fil1" d="M9705 6125l-1754 -1c248,284 650,267 964,267 306,10 587,-32 790,-266z"/>
    <polygon class="fil1" points="5034,5766 5179,5766 5205,5671 4599,5672 4630,5766 "/>
    <polygon class="fil1" points="7645,5766 7790,5766 7816,5671 7210,5672 7241,5766 "/>
    <polygon class="fil1" points="10261,5766 10406,5766 10432,5671 9826,5672 9857,5766 "/>
   </g>
   <path class="fil0" d="M8007 7388l-198 0 -132 -216 -134 216 -189 0 222 -343 -213 -338 197 0 124 206 126 -206 190 0 -214 331 221 350zm549 -256c0,84 -23,151 -70,199 -46,49 -111,73 -196,73 -84,0 -149,-24 -196,-73 -46,-48 -69,-115 -69,-199 0,-86 23,-152 69,-201 47,-48 112,-72 196,-72 84,0 150,24 196,73 46,48 70,115 70,200zm-164 1c0,-31 -3,-56 -8,-76 -5,-20 -12,-37 -21,-49 -9,-12 -20,-21 -32,-26 -12,-5 -26,-8 -41,-8 -14,0 -27,2 -39,7 -12,4 -22,12 -32,25 -9,12 -17,28 -22,49 -6,20 -9,46 -9,78 0,31 3,56 8,75 5,20 12,35 21,47 8,12 19,20 32,26 13,5 27,8 42,8 13,0 26,-3 40,-8 13,-6 24,-14 32,-25 9,-13 16,-29 21,-47 5,-18 8,-44 8,-76zm753 -8c0,82 -21,148 -63,198 -41,50 -93,75 -154,75 -26,0 -48,-2 -67,-8 -19,-6 -39,-15 -61,-27l0 213 -160 0 0 -701 160 0 0 53c24,-20 48,-36 72,-49 25,-12 53,-18 85,-18 60,0 106,23 139,71 33,47 49,111 49,193zm-164 3c0,-50 -8,-86 -23,-109 -16,-22 -40,-34 -73,-34 -14,0 -28,3 -43,7 -14,5 -28,12 -42,21l0 258c9,4 18,7 29,8 10,2 22,2 36,2 39,0 69,-12 88,-38 19,-25 28,-64 28,-115zm754 -3c0,82 -21,148 -63,198 -42,50 -93,75 -155,75 -25,0 -47,-2 -67,-8 -18,-6 -39,-15 -60,-27l0 213 -160 0 0 -701 160 0 0 53c23,-20 48,-36 72,-49 24,-12 53,-18 85,-18 60,0 106,23 138,71 33,47 50,111 50,193zm-164 3c0,-50 -8,-86 -24,-109 -15,-22 -39,-34 -72,-34 -14,0 -29,3 -43,7 -14,5 -28,12 -42,21l0 258c8,4 18,7 28,8 10,2 23,2 37,2 39,0 68,-12 87,-38 19,-25 29,-64 29,-115zm742 4c0,84 -23,151 -69,199 -47,49 -112,73 -197,73 -84,0 -149,-24 -195,-73 -47,-48 -70,-115 -70,-199 0,-86 23,-152 70,-201 46,-48 111,-72 195,-72 85,0 150,24 196,73 47,48 70,115 70,200zm-164 1c0,-31 -2,-56 -8,-76 -5,-20 -12,-37 -21,-49 -9,-12 -20,-21 -32,-26 -12,-5 -25,-8 -41,-8 -14,0 -27,2 -39,7 -11,4 -22,12 -32,25 -9,12 -17,28 -22,49 -5,20 -8,46 -8,78 0,31 2,56 8,75 5,20 12,35 20,47 8,12 19,20 32,26 13,5 27,8 43,8 13,0 26,-3 39,-8 13,-6 24,-14 32,-25 9,-13 17,-29 22,-47 5,-18 7,-44 7,-76zm753 -8c0,82 -21,148 -62,198 -42,50 -94,75 -155,75 -25,0 -48,-2 -67,-8 -19,-6 -39,-15 -60,-27l0 213 -161 0 0 -701 161 0 0 53c23,-20 47,-36 72,-49 24,-12 53,-18 85,-18 59,0 106,23 138,71 33,47 49,111 49,193zm-164 3c0,-50 -7,-86 -23,-109 -15,-22 -40,-34 -72,-34 -15,0 -29,3 -43,7 -15,5 -29,12 -42,21l0 258c8,4 18,7 28,8 10,2 22,2 37,2 39,0 68,-12 87,-38 19,-25 28,-64 28,-115zm542 22l-303 0 0 -126 303 0 0 126zm619 238l-184 0 -122 -203 -42 0 0 203 -160 0 0 -513 160 0 0 206c22,0 38,-4 49,-10 11,-6 23,-23 36,-50 5,-9 9,-19 14,-30 5,-11 9,-20 13,-29 17,-34 37,-57 61,-69 23,-13 52,-19 87,-19 11,0 23,0 34,0 10,1 18,1 23,1l0 137 -31 0c-10,0 -19,2 -27,6 -8,3 -14,8 -20,14 -6,6 -10,12 -13,18 -3,6 -6,12 -9,18 -7,17 -12,28 -15,35 -3,7 -9,14 -18,21l164 264zm540 -155c0,25 -5,47 -15,66 -9,19 -22,35 -39,48 -21,16 -42,27 -66,33 -23,5 -50,8 -82,8l-281 0 0 -513 268 0c38,0 65,1 83,3 18,3 35,9 52,18 18,10 32,23 41,39 9,16 13,36 13,58 0,26 -7,48 -21,67 -13,19 -31,33 -52,43l0 5c29,7 52,21 71,43 19,21 28,48 28,82zm-186 -203c0,-20 -6,-34 -17,-42 -12,-7 -30,-11 -55,-11l-67 0 0 103 69 0c23,0 40,-4 52,-13 12,-9 18,-22 18,-37zm22 199c0,-23 -6,-38 -19,-47 -12,-9 -31,-14 -55,-14l-87 0 0 118 89 0c23,0 41,-5 53,-15 13,-11 19,-25 19,-42zm514 173c-97,0 -172,-23 -224,-69 -51,-47 -77,-113 -77,-198 0,-84 24,-151 72,-201 48,-50 116,-75 203,-75 79,0 138,21 178,64 39,42 59,103 59,182l0 57 -352 0c1,24 6,44 15,60 9,16 20,29 34,38 14,10 30,17 48,21 19,4 39,6 60,6 19,0 37,-2 55,-6 19,-4 35,-10 50,-17 13,-6 25,-12 36,-19 12,-7 21,-13 28,-18l17 0 0 133c-13,5 -25,10 -36,14 -11,4 -26,9 -45,14 -17,4 -35,8 -54,10 -18,3 -41,4 -67,4zm54 -336c-1,-34 -9,-60 -24,-78 -15,-18 -38,-27 -69,-27 -31,0 -56,9 -73,28 -18,19 -28,45 -30,77l196 0zm490 336c-42,0 -81,-5 -116,-16 -35,-10 -66,-27 -92,-49 -25,-22 -45,-50 -59,-84 -15,-34 -22,-73 -22,-119 0,-49 8,-91 23,-126 16,-34 37,-62 63,-85 26,-21 56,-37 91,-47 34,-10 70,-15 108,-15 28,0 56,3 85,10 28,6 57,16 85,31l0 137 -20 0c-7,-6 -14,-13 -24,-20 -9,-8 -19,-14 -30,-20 -12,-7 -25,-12 -40,-16 -14,-5 -31,-7 -49,-7 -40,0 -72,14 -94,43 -23,28 -34,67 -34,115 0,51 12,90 36,115 24,25 56,38 95,38 20,0 38,-2 53,-7 16,-4 29,-10 40,-16 10,-7 19,-13 27,-20 8,-7 14,-13 20,-19l20 0 0 137c-9,4 -19,9 -31,14 -13,5 -25,10 -37,13 -16,4 -30,7 -44,10 -14,2 -31,3 -54,3zm665 -416l-159 0 0 402 -160 0 0 -402 -160 0 0 -111 479 0 0 111z"/>
  </g>
 </g>
</svg>
